<?xml version="1.0" encoding="UTF-8"?>
<!DOCTYPE svg PUBLIC "-//W3C//DTD SVG 1.1//EN" "http://www.w3.org/Graphics/SVG/1.1/DTD/svg11.dtd">
<svg version="1.1" xmlns="http://www.w3.org/2000/svg" xmlns:xlink="http://www.w3.org/1999/xlink" x="0" y="0" width="32" height="32" viewBox="0, 0, 32, 32">
  <g id="Layer_1">
    <g>
      <path d="M16.016,8.25 C14.152,8.25 12.641,6.739 12.641,4.875 C12.641,3.011 14.152,1.5 16.016,1.5 C17.88,1.5 19.391,3.011 19.391,4.875 C19.391,6.739 17.88,8.25 16.016,8.25 z" fill="#A3ACD8"/>
      <path d="M16.016,1.5 C17.88,1.5 19.391,3.011 19.391,4.875 C19.391,6.739 17.88,8.25 16.016,8.25 C14.152,8.25 12.641,6.739 12.641,4.875 C12.641,3.011 14.152,1.5 16.016,1.5 z M16.016,2.25 C14.566,2.25 13.391,3.425 13.391,4.875 C13.391,6.325 14.566,7.5 16.016,7.5 C17.465,7.5 18.641,6.325 18.641,4.875 C18.641,3.425 17.465,2.25 16.016,2.25 z" fill="#000000"/>
    </g>
    <path d="M27.703,9.844 C29.567,9.844 31.078,11.355 31.078,13.219 C31.078,15.083 29.567,16.594 27.703,16.594 C25.839,16.594 24.328,15.083 24.328,13.219 C24.328,11.355 25.839,9.844 27.703,9.844 z M27.703,10.594 C26.253,10.594 25.078,11.769 25.078,13.219 C25.078,14.668 26.253,15.844 27.703,15.844 C29.153,15.844 30.328,14.668 30.328,13.219 C30.328,11.769 29.153,10.594 27.703,10.594 z" fill="#000000"/>
    <path d="M23.062,23.75 C24.926,23.75 26.438,25.261 26.438,27.125 C26.438,28.989 24.926,30.5 23.062,30.5 C21.199,30.5 19.688,28.989 19.688,27.125 C19.688,25.261 21.199,23.75 23.062,23.75 z M23.062,24.5 C21.613,24.5 20.438,25.675 20.438,27.125 C20.438,28.575 21.613,29.75 23.062,29.75 C24.512,29.75 25.688,28.575 25.688,27.125 C25.688,25.675 24.512,24.5 23.062,24.5 z" fill="#000000"/>
    <path d="M8.828,23.75 C10.692,23.75 12.203,25.261 12.203,27.125 C12.203,28.989 10.692,30.5 8.828,30.5 C6.964,30.5 5.453,28.989 5.453,27.125 C5.453,25.261 6.964,23.75 8.828,23.75 z M8.828,24.5 C7.378,24.5 6.203,25.675 6.203,27.125 C6.203,28.575 7.378,29.75 8.828,29.75 C10.278,29.75 11.453,28.575 11.453,27.125 C11.453,25.675 10.278,24.5 8.828,24.5 z" fill="#000000"/>
    <path d="M19.813,26.826 L19.813,27.576 L12.094,27.576 L12.094,26.826 L19.813,26.826 z" fill="#000000"/>
    <path d="M14.644,7.963 L15.358,8.193 L13.832,12.926 L16.016,12.928 L18.128,12.928 L16.618,8.192 L17.332,7.964 L18.915,12.928 L24.454,12.928 L24.454,12.936 L24.462,12.936 L24.461,13.686 L19.155,13.681 L20.565,18.101 L24.871,14.923 L25.317,15.526 L20.805,18.856 L22.446,24.002 L21.732,24.23 L20.168,19.326 L16.61,21.952 L20.724,25.002 L20.277,25.604 L15.979,22.418 L11.661,25.605 L11.215,25.001 L15.349,21.95 L11.776,19.302 L10.187,24.231 L9.473,24.001 L11.14,18.83 L6.683,15.526 L7.13,14.923 L11.383,18.077 L12.801,13.678 L7.657,13.678 L7.657,13.67 L7.57,13.67 L7.571,12.92 L13.044,12.925 L14.644,7.963 z M16.016,13.678 L13.589,13.678 L12.019,18.548 L15.98,21.485 L19.927,18.572 L18.368,13.68 L16.016,13.678 z" fill="#000000"/>
    <path d="M26.332,16.232 L27.044,16.468 L24.466,24.234 L23.754,23.998 L26.332,16.232 z" fill="#000000"/>
    <path d="M5.67,16.234 L8.185,24 L7.472,24.231 L4.956,16.465 L5.67,16.234 z" fill="#000000"/>
    <path d="M18.907,6.561 L25.235,11.108 L24.797,11.717 L18.469,7.17 L18.907,6.561 z" fill="#000000"/>
    <path d="M13.11,6.561 L13.547,7.17 L7.219,11.717 L6.782,11.108 L13.11,6.561 z" fill="#000000"/>
    <g>
      <path d="M4.266,16.594 C2.402,16.594 0.891,15.083 0.891,13.219 C0.891,11.355 2.402,9.844 4.266,9.844 C6.13,9.844 7.641,11.355 7.641,13.219 C7.641,15.083 6.13,16.594 4.266,16.594 z" fill="#A3ACD8"/>
      <path d="M4.266,9.844 C6.13,9.844 7.641,11.355 7.641,13.219 C7.641,15.083 6.13,16.594 4.266,16.594 C2.402,16.594 0.891,15.083 0.891,13.219 C0.891,11.355 2.402,9.844 4.266,9.844 z M4.266,10.594 C2.816,10.594 1.641,11.769 1.641,13.219 C1.641,14.668 2.816,15.844 4.266,15.844 C5.715,15.844 6.891,14.668 6.891,13.219 C6.891,11.769 5.715,10.594 4.266,10.594 z" fill="#000000"/>
    </g>
  </g>
</svg>
